<svg xmlns="http://www.w3.org/2000/svg" xmlns:xlink="http://www.w3.org/1999/xlink" width="1920" zoomAndPan="magnify" viewBox="0 0 1440 599.999999" height="800" preserveAspectRatio="xMidYMid meet" version="1.0"><defs><filter x="0%" y="0%" width="100%" height="100%" id="2b20fcd705"><feColorMatrix values="0 0 0 0 1 0 0 0 0 1 0 0 0 0 1 0 0 0 1 0" color-interpolation-filters="sRGB"/></filter><mask id="5716c3ec4c"><g filter="url(#2b20fcd705)"><rect x="-144" width="1728" fill="#000000" y="-60" height="719.999999" fill-opacity="0.149"/></g></mask><clipPath id="33b248ff62"><path d="M 1244 0 L 1274 0 L 1274 26 L 1244 26 Z M 1244 0 " clip-rule="nonzero"/></clipPath><clipPath id="795bec4c7e"><path d="M 1205 0 L 1241 0 L 1241 5 L 1205 5 Z M 1205 0 " clip-rule="nonzero"/></clipPath><clipPath id="6ef2f7ed95"><path d="M 843 0 L 867 0 L 867 24 L 843 24 Z M 843 0 " clip-rule="nonzero"/></clipPath><clipPath id="2f377d9b66"><path d="M 883 0 L 911 0 L 911 27 L 883 27 Z M 883 0 " clip-rule="nonzero"/></clipPath><clipPath id="5ba89d1630"><path d="M 477 0 L 568 0 L 568 30 L 477 30 Z M 477 0 " clip-rule="nonzero"/></clipPath><clipPath id="43eb14623c"><path d="M 109 0 L 132 0 L 132 10 L 109 10 Z M 109 0 " clip-rule="nonzero"/></clipPath><clipPath id="352f81e010"><path d="M 147 0 L 172 0 L 172 27 L 147 27 Z M 147 0 " clip-rule="nonzero"/></clipPath><clipPath id="ff9d3273ed"><path d="M 182 0 L 212 0 L 212 11 L 182 11 Z M 182 0 " clip-rule="nonzero"/></clipPath><clipPath id="e0953954f0"><path d="M 0 141 L 110 141 L 110 274 L 0 274 Z M 0 141 " clip-rule="nonzero"/></clipPath><clipPath id="cc8f1b447d"><path d="M 0 64 L 13 64 L 13 121 L 0 121 Z M 0 64 " clip-rule="nonzero"/></clipPath><clipPath id="e87ab06bbb"><path d="M 1412 146 L 1440 146 L 1440 274 L 1412 274 Z M 1412 146 " clip-rule="nonzero"/></clipPath><clipPath id="d14161d4f8"><path d="M 1411 57 L 1440 57 L 1440 121 L 1411 121 Z M 1411 57 " clip-rule="nonzero"/></clipPath><clipPath id="23f259a78f"><path d="M 0 504 L 35 504 L 35 600 L 0 600 Z M 0 504 " clip-rule="nonzero"/></clipPath><clipPath id="f7bac5cffb"><path d="M 0 419 L 35 419 L 35 483 L 0 483 Z M 0 419 " clip-rule="nonzero"/></clipPath><clipPath id="711e1f2b70"><path d="M 410 571 L 449 571 L 449 600 L 410 600 Z M 410 571 " clip-rule="nonzero"/></clipPath><clipPath id="d1973a229c"><path d="M 335 575 L 381 575 L 381 600 L 335 600 Z M 335 575 " clip-rule="nonzero"/></clipPath><clipPath id="2865df365e"><path d="M 627 507 L 780 507 L 780 600 L 627 600 Z M 627 507 " clip-rule="nonzero"/></clipPath><clipPath id="40d5b93099"><path d="M 993 560 L 1031 560 L 1031 600 L 993 600 Z M 993 560 " clip-rule="nonzero"/></clipPath><clipPath id="32ff1f1151"><path d="M 1060 569 L 1105 569 L 1105 600 L 1060 600 Z M 1060 569 " clip-rule="nonzero"/></clipPath><clipPath id="4dde78bbe1"><path d="M 1337 502 L 1440 502 L 1440 600 L 1337 600 Z M 1337 502 " clip-rule="nonzero"/></clipPath><clipPath id="6cd870a7d1"><path d="M 1434 433 L 1440 433 L 1440 480 L 1434 480 Z M 1434 433 " clip-rule="nonzero"/></clipPath><clipPath id="de06a44305"><rect x="0" width="1440" y="0" height="600"/></clipPath></defs><g mask="url(#5716c3ec4c)"><g transform="matrix(1, 0, 0, 1, 0, -0.000000000000034788)"><g clip-path="url(#de06a44305)"><path fill="#93c01f" d="M 118.765625 344.742188 C 123.597656 353.847656 120.0625 364.605469 123.496094 374.0625 C 126.328125 381.894531 133.003906 388.519531 141.4375 389.839844 C 146.777344 390.675781 152.582031 388.996094 156.554688 385.304688 C 160.9375 381.230469 161.761719 375.257812 163.828125 369.921875 C 166.402344 363.238281 169.992188 357.652344 173.671875 351.535156 C 177.332031 345.464844 179.972656 338.636719 178.347656 331.503906 C 177.046875 325.792969 172.8125 319.914062 167.609375 317.066406 C 162.078125 314.042969 155.515625 312.597656 149.847656 309.597656 C 144.800781 306.921875 140.421875 302.800781 135.351562 300.296875 C 132.484375 298.875 129.398438 297.960938 125.84375 298.128906 C 120.570312 298.367188 115.558594 301.222656 112.292969 305.375 C 105.722656 313.75 106.09375 326.289062 111.59375 335.082031 C 113.726562 338.488281 116.867188 341.164062 118.765625 344.742188 " fill-opacity="1" fill-rule="nonzero"/><path fill="#93c01f" d="M 196.933594 367.980469 C 187.617188 366.589844 179.339844 370.25 178.460938 376.164062 C 177.578125 382.074219 184.421875 387.988281 193.738281 389.378906 C 203.050781 390.777344 211.328125 387.109375 212.207031 381.195312 C 213.089844 375.292969 206.257812 369.367188 196.933594 367.980469 " fill-opacity="1" fill-rule="nonzero"/><path fill="#93c01f" d="M 230.929688 339.695312 C 230.667969 333.015625 221.917969 327.914062 211.382812 328.320312 C 200.851562 328.714844 192.503906 334.460938 192.765625 341.140625 C 193.015625 347.835938 201.765625 352.925781 212.300781 352.527344 C 222.84375 352.121094 231.175781 346.378906 230.929688 339.695312 " fill-opacity="1" fill-rule="nonzero"/><path fill="#93c01f" d="M 171.605469 288.964844 C 178.378906 282.429688 180.503906 273.640625 176.347656 269.339844 C 172.203125 265.039062 163.339844 266.867188 156.566406 273.414062 C 149.792969 279.960938 147.667969 288.738281 151.824219 293.039062 C 155.980469 297.339844 164.832031 295.523438 171.605469 288.964844 " fill-opacity="1" fill-rule="nonzero"/><path fill="#93c01f" d="M 193.070312 292.507812 C 184.25 298.300781 180.097656 307.53125 183.777344 313.117188 C 187.457031 318.703125 197.585938 318.535156 206.394531 312.734375 C 215.199219 306.945312 219.355469 297.710938 215.675781 292.125 C 212.003906 286.539062 201.878906 286.707031 193.070312 292.507812 " fill-opacity="1" fill-rule="nonzero"/><path fill="#93c01f" d="M 597.683594 332.585938 C 596.554688 327.292969 592.917969 322.472656 588.050781 320.082031 C 582.679688 317.441406 576.808594 318.796875 571.082031 318.773438 C 563.914062 318.738281 557.410156 317.371094 550.386719 316.121094 C 543.40625 314.878906 536.078125 314.84375 529.996094 318.90625 C 525.117188 322.160156 521.128906 328.195312 520.328125 334.078125 C 519.472656 340.316406 520.464844 346.964844 519.683594 353.332031 C 518.984375 358.996094 516.691406 364.558594 516.152344 370.179688 C 515.847656 373.363281 516.09375 376.570312 517.507812 379.832031 C 519.617188 384.671875 524.066406 388.339844 529.113281 389.910156 C 539.285156 393.058594 550.871094 388.25 557.136719 379.964844 C 559.554688 376.761719 560.941406 372.878906 563.609375 369.832031 C 570.40625 362.078125 581.707031 361.535156 589.328125 354.96875 C 595.640625 349.515625 599.457031 340.925781 597.683594 332.585938 " fill-opacity="1" fill-rule="nonzero"/><path fill="#93c01f" d="M 564.375 269.566406 C 558.539062 270.851562 555.445312 279.339844 557.464844 288.535156 C 559.484375 297.734375 565.855469 304.15625 571.691406 302.882812 C 577.539062 301.59375 580.632812 293.097656 578.613281 283.898438 C 576.59375 274.699219 570.210938 268.277344 564.375 269.566406 " fill-opacity="1" fill-rule="nonzero"/><path fill="#93c01f" d="M 533.867188 302 C 540.03125 299.382812 541.667969 289.394531 537.535156 279.699219 C 533.402344 269.992188 525.070312 264.261719 518.90625 266.878906 C 512.753906 269.496094 511.117188 279.484375 515.238281 289.179688 C 519.371094 298.886719 527.714844 304.621094 533.867188 302 " fill-opacity="1" fill-rule="nonzero"/><path fill="#93c01f" d="M 503.503906 357.394531 C 506.035156 351.976562 501.167969 344.347656 492.644531 340.351562 C 484.109375 336.367188 475.132812 337.519531 472.601562 342.925781 C 470.0625 348.332031 474.929688 355.960938 483.453125 359.957031 C 491.988281 363.949219 500.964844 362.800781 503.503906 357.394531 " fill-opacity="1" fill-rule="nonzero"/><path fill="#93c01f" d="M 502.457031 299.40625 C 493.898438 293.242188 483.792969 292.644531 479.882812 298.074219 C 475.964844 303.503906 479.738281 312.902344 488.296875 319.054688 C 496.855469 325.21875 506.960938 325.816406 510.878906 320.386719 C 514.785156 314.957031 511.015625 305.566406 502.457031 299.40625 " fill-opacity="1" fill-rule="nonzero"/><path fill="#93c01f" d="M 945.414062 298.59375 C 942.984375 288.230469 932.960938 280.691406 922.640625 279.496094 C 918.652344 279.035156 914.601562 279.8125 910.625 279.058594 C 900.484375 277.136719 894.296875 267.667969 884.769531 264.429688 C 876.867188 261.742188 867.527344 262.828125 861.226562 268.582031 C 857.242188 272.230469 854.925781 277.804688 855.332031 283.222656 C 855.773438 289.191406 859.917969 293.558594 862.808594 298.503906 C 866.410156 304.6875 868.53125 310.984375 871.015625 317.675781 C 873.476562 324.324219 877.160156 330.65625 883.742188 333.839844 C 889.015625 336.390625 896.253906 336.761719 901.726562 334.472656 C 907.542969 332.042969 912.769531 327.824219 918.664062 325.273438 C 923.902344 322.992188 929.855469 322.148438 934.980469 319.765625 C 937.882812 318.421875 940.523438 316.570312 942.613281 313.703125 C 945.730469 309.425781 946.621094 303.738281 945.414062 298.59375 " fill-opacity="1" fill-rule="nonzero"/><path fill="#93c01f" d="M 843.636719 325.554688 C 850.546875 319.15625 852.847656 310.410156 848.785156 306.03125 C 844.71875 301.652344 835.824219 303.289062 828.914062 309.6875 C 822.003906 316.097656 819.699219 324.84375 823.765625 329.222656 C 827.828125 333.601562 836.726562 331.964844 843.636719 325.554688 " fill-opacity="1" fill-rule="nonzero"/><path fill="#93c01f" d="M 844.492188 369.75 C 849.878906 373.734375 859.332031 370.089844 865.597656 361.613281 C 871.863281 353.136719 872.585938 343.039062 867.210938 339.066406 C 861.824219 335.082031 852.386719 338.738281 846.109375 347.214844 C 839.84375 355.6875 839.121094 365.777344 844.492188 369.75 " fill-opacity="1" fill-rule="nonzero"/><path fill="#93c01f" d="M 930.363281 337.15625 C 924.410156 337.710938 920.300781 345.769531 921.183594 355.148438 C 922.0625 364.515625 927.605469 371.671875 933.558594 371.105469 C 939.507812 370.554688 943.617188 362.496094 942.738281 353.117188 C 941.855469 343.738281 936.3125 336.59375 930.363281 337.15625 " fill-opacity="1" fill-rule="nonzero"/><path fill="#93c01f" d="M 894.714844 349.5625 C 888.054688 348.941406 881.855469 356.953125 880.886719 367.449219 C 879.914062 377.945312 884.519531 386.953125 891.195312 387.574219 C 897.855469 388.183594 904.042969 380.179688 905.015625 369.683594 C 905.996094 359.1875 901.378906 350.179688 894.714844 349.5625 " fill-opacity="1" fill-rule="nonzero"/><path fill="#93c01f" d="M 1294.691406 332.304688 C 1287.914062 329.980469 1282.191406 326.605469 1275.933594 323.164062 C 1269.726562 319.742188 1262.804688 317.363281 1255.734375 319.257812 C 1250.078125 320.769531 1244.355469 325.21875 1241.710938 330.519531 C 1238.902344 336.164062 1237.703125 342.777344 1234.914062 348.554688 C 1232.441406 353.703125 1228.492188 358.230469 1226.164062 363.386719 C 1224.855469 366.296875 1224.0625 369.425781 1224.359375 372.957031 C 1224.796875 378.226562 1227.847656 383.113281 1232.125 386.21875 C 1240.742188 392.46875 1253.261719 391.625 1261.84375 385.789062 C 1265.175781 383.53125 1267.726562 380.292969 1271.226562 378.273438 C 1280.15625 373.09375 1291.03125 376.21875 1300.359375 372.4375 C 1308.09375 369.300781 1314.449219 362.382812 1315.453125 353.917969 C 1316.085938 348.546875 1314.1875 342.8125 1310.339844 338.984375 C 1306.105469 334.753906 1300.109375 334.167969 1294.691406 332.304688 " fill-opacity="1" fill-rule="nonzero"/><path fill="#93c01f" d="M 1304.128906 283.546875 C 1298.191406 282.894531 1292.53125 289.949219 1291.492188 299.304688 C 1290.457031 308.671875 1294.441406 316.785156 1300.378906 317.441406 C 1306.320312 318.105469 1311.976562 311.054688 1313.015625 301.683594 C 1314.054688 292.328125 1310.078125 284.203125 1304.128906 283.546875 " fill-opacity="1" fill-rule="nonzero"/><path fill="#93c01f" d="M 1264.824219 304.496094 C 1271.496094 303.988281 1276.261719 295.050781 1275.460938 284.542969 C 1274.660156 274.023438 1268.605469 265.917969 1261.933594 266.425781 C 1255.261719 266.933594 1250.496094 275.863281 1251.296875 286.382812 C 1252.101562 296.890625 1258.152344 304.992188 1264.824219 304.496094 " fill-opacity="1" fill-rule="nonzero"/><path fill="#93c01f" d="M 1198.480469 343.21875 C 1205.289062 349.730469 1214.152344 351.523438 1218.292969 347.214844 C 1222.425781 342.902344 1220.269531 334.121094 1213.472656 327.597656 C 1206.664062 321.074219 1197.800781 319.292969 1193.667969 323.601562 C 1189.523438 327.914062 1191.679688 336.695312 1198.480469 343.21875 " fill-opacity="1" fill-rule="nonzero"/><path fill="#93c01f" d="M 1237.152344 314.527344 C 1242.59375 310.636719 1242.039062 300.535156 1235.910156 291.957031 C 1229.777344 283.378906 1220.394531 279.574219 1214.953125 283.457031 C 1209.511719 287.351562 1210.0625 297.453125 1216.195312 306.03125 C 1222.3125 314.609375 1231.695312 318.410156 1237.152344 314.527344 " fill-opacity="1" fill-rule="nonzero"/><g clip-path="url(#33b248ff62)"><path fill="#93c01f" d="M 1271.171875 -0.285156 C 1267.015625 -4.585938 1258.152344 -2.757812 1251.378906 3.789062 C 1244.601562 10.335938 1242.480469 19.128906 1246.636719 23.414062 C 1250.789062 27.714844 1259.652344 25.898438 1266.429688 19.351562 C 1273.203125 12.808594 1275.324219 4.015625 1271.171875 -0.285156 " fill-opacity="1" fill-rule="nonzero"/></g><g clip-path="url(#795bec4c7e)"><path fill="#93c01f" d="M 1229.925781 0.257812 C 1238.730469 -5.542969 1242.886719 -14.777344 1239.207031 -20.363281 C 1235.535156 -25.949219 1225.40625 -25.78125 1216.601562 -19.980469 C 1207.792969 -14.179688 1203.628906 -4.957031 1207.308594 0.628906 C 1210.988281 6.214844 1221.117188 6.046875 1229.925781 0.257812 " fill-opacity="1" fill-rule="nonzero"/></g><g clip-path="url(#6ef2f7ed95)"><path fill="#93c01f" d="M 851.292969 -10.113281 C 845.453125 -8.828125 842.359375 -0.339844 844.382812 8.867188 C 846.402344 18.066406 852.769531 24.476562 858.609375 23.203125 C 864.457031 21.914062 867.539062 13.417969 865.527344 4.21875 C 863.496094 -4.980469 857.128906 -11.402344 851.292969 -10.113281 " fill-opacity="1" fill-rule="nonzero"/></g><g clip-path="url(#2f377d9b66)"><path fill="#93c01f" d="M 889.117188 -9.246094 C 882.960938 -6.628906 881.3125 3.359375 885.445312 13.054688 C 889.578125 22.761719 897.921875 28.503906 904.078125 25.875 C 910.230469 23.257812 911.878906 13.269531 907.746094 3.574219 C 903.613281 -6.132812 895.28125 -11.863281 889.117188 -9.246094 " fill-opacity="1" fill-rule="nonzero"/></g><g clip-path="url(#5ba89d1630)"><path fill="#93c01f" d="M 560.1875 -5.746094 C 556.574219 -11.933594 554.460938 -18.21875 551.976562 -24.910156 C 549.503906 -31.558594 545.835938 -37.890625 539.242188 -41.074219 C 533.96875 -43.625 526.730469 -43.996094 521.253906 -41.714844 C 515.441406 -39.277344 510.210938 -35.058594 504.328125 -32.507812 C 499.078125 -30.238281 493.128906 -29.390625 488.003906 -27.011719 C 485.101562 -25.65625 482.457031 -23.816406 480.371094 -20.949219 C 477.265625 -16.671875 476.363281 -10.984375 477.570312 -5.835938 C 480.007812 4.523438 490.035156 12.0625 500.34375 13.257812 C 504.339844 13.730469 508.382812 12.941406 512.359375 13.699219 C 522.496094 15.628906 528.695312 25.085938 538.226562 28.324219 C 546.128906 31.011719 555.457031 29.9375 561.753906 24.183594 C 565.753906 20.527344 568.054688 14.953125 567.660156 9.546875 C 567.210938 3.574219 563.066406 -0.804688 560.1875 -5.746094 " fill-opacity="1" fill-rule="nonzero"/></g><g clip-path="url(#43eb14623c)"><path fill="#93c01f" d="M 122.613281 -24.683594 C 116.664062 -25.339844 111.007812 -18.285156 109.96875 -8.929688 C 108.929688 0.4375 112.914062 8.550781 118.855469 9.207031 C 124.792969 9.871094 130.449219 2.820312 131.488281 -6.546875 C 132.527344 -15.90625 128.554688 -24.03125 122.613281 -24.683594 " fill-opacity="1" fill-rule="nonzero"/></g><g clip-path="url(#352f81e010)"><path fill="#93c01f" d="M 161.058594 26.339844 C 167.734375 25.832031 172.488281 16.890625 171.683594 6.386719 C 170.882812 -4.121094 164.832031 -12.238281 158.160156 -11.730469 C 151.484375 -11.222656 146.71875 -2.292969 147.523438 8.226562 C 148.324219 18.730469 154.386719 26.847656 161.058594 26.339844 " fill-opacity="1" fill-rule="nonzero"/></g><g clip-path="url(#ff9d3273ed)"><path fill="#93c01f" d="M 185.84375 -21.773438 C 180.390625 -17.878906 180.945312 -7.777344 187.074219 0.808594 C 193.207031 9.386719 202.589844 13.191406 208.03125 9.296875 C 213.484375 5.414062 212.929688 -4.699219 206.800781 -13.273438 C 200.667969 -21.851562 191.285156 -25.65625 185.84375 -21.773438 " fill-opacity="1" fill-rule="nonzero"/></g><g clip-path="url(#e0953954f0)"><path fill="#93c01f" d="M 24.835938 265.511719 C 39.070312 255.695312 44.875 237.140625 60.738281 229.207031 C 66.949219 226.089844 74.007812 225.480469 80.398438 222.839844 C 96.894531 216.023438 109.933594 198.859375 109.085938 180.574219 C 108.667969 171.511719 104.515625 162.515625 97.367188 156.90625 C 92.558594 153.148438 87.339844 151.332031 81.898438 150.464844 C 72.3125 148.929688 62.0625 150.316406 52.328125 149.019531 C 41.398438 147.5625 30.773438 143.035156 20 141.738281 C 12.628906 140.859375 4.363281 142.753906 -2.488281 146.433594 L -2.488281 273.3125 C 7.074219 273.957031 16.898438 271 24.835938 265.511719 " fill-opacity="1" fill-rule="nonzero"/></g><path fill="#93c01f" d="M 55.445312 66.234375 C 45.339844 68.109375 39.535156 82.519531 42.46875 98.445312 C 45.417969 114.359375 55.996094 125.746094 66.101562 123.882812 C 76.207031 122.011719 82.011719 107.597656 79.074219 91.675781 C 76.128906 75.761719 65.550781 64.371094 55.445312 66.234375 " fill-opacity="1" fill-rule="nonzero"/><g clip-path="url(#cc8f1b447d)"><path fill="#93c01f" d="M 8.925781 81.980469 C 6.171875 74.867188 2.105469 68.921875 -2.488281 64.722656 L -2.488281 120.949219 C -1.179688 120.847656 0.09375 120.566406 1.335938 120.082031 C 12.0625 115.9375 15.460938 98.875 8.925781 81.980469 " fill-opacity="1" fill-rule="nonzero"/></g><path fill="#93c01f" d="M 270.367188 176.871094 C 275.109375 180.722656 280.304688 182.628906 285.722656 183.585938 C 295.289062 185.292969 305.550781 184.074219 315.261719 185.539062 C 326.167969 187.175781 336.714844 191.894531 347.453125 193.363281 C 357.558594 194.75 369.414062 190.933594 377.046875 184.378906 C 386.585938 176.183594 389.90625 164.050781 391.070312 151.917969 C 392.242188 139.707031 393 128.320312 396.253906 116.445312 C 398.859375 106.964844 403.828125 97.882812 401.929688 87.769531 C 400.214844 78.59375 393.914062 70.355469 385.671875 66.054688 C 372.664062 59.261719 356.6875 61.585938 344.742188 69.519531 C 330.335938 79.101562 324.226562 97.554688 308.226562 105.21875 C 301.960938 108.21875 294.894531 108.714844 288.457031 111.242188 C 271.847656 117.777344 258.511719 134.730469 259.042969 153.015625 C 259.316406 162.085938 263.3125 171.152344 270.367188 176.871094 " fill-opacity="1" fill-rule="nonzero"/><path fill="#93c01f" d="M 474.65625 150.28125 C 479.476562 141.21875 471.800781 127.699219 457.496094 120.105469 C 443.199219 112.507812 427.6875 113.703125 422.863281 122.777344 C 418.042969 131.839844 425.734375 145.351562 440.027344 152.957031 C 454.332031 160.554688 469.835938 159.355469 474.65625 150.28125 " fill-opacity="1" fill-rule="nonzero"/><path fill="#93c01f" d="M 406.832031 185.777344 C 399.640625 194.761719 405.296875 211.203125 419.457031 222.523438 C 433.601562 233.84375 450.910156 235.742188 458.09375 226.769531 C 465.273438 217.785156 459.628906 201.328125 445.46875 190.007812 C 431.3125 178.691406 414.011719 176.792969 406.832031 185.777344 " fill-opacity="1" fill-rule="nonzero"/><path fill="#93c01f" d="M 301.070312 210.4375 C 290.929688 212.128906 284.878906 226.441406 287.554688 242.410156 C 290.21875 258.378906 300.605469 269.949219 310.734375 268.257812 C 320.875 266.5625 326.925781 252.242188 324.25 236.28125 C 321.585938 220.3125 311.195312 208.746094 301.070312 210.4375 " fill-opacity="1" fill-rule="nonzero"/><path fill="#93c01f" d="M 365.753906 215.335938 C 354.960938 219.296875 351.269531 236.304688 357.523438 253.3125 C 363.769531 270.320312 377.589844 280.894531 388.382812 276.933594 C 399.1875 272.972656 402.867188 255.964844 396.625 238.957031 C 390.371094 221.949219 376.550781 211.375 365.753906 215.335938 " fill-opacity="1" fill-rule="nonzero"/><path fill="#93c01f" d="M 793.753906 249.398438 C 799.523438 242.386719 802.46875 232.929688 800.921875 223.980469 C 799.882812 217.964844 797.21875 213.125 793.773438 208.835938 C 787.6875 201.261719 779.152344 195.425781 772.808594 187.945312 C 765.671875 179.535156 760.828125 169.050781 753.703125 160.878906 C 747.007812 153.195312 735.570312 148.273438 725.5 148.195312 C 712.917969 148.09375 702.441406 155.046875 693.578125 163.417969 C 684.660156 171.851562 676.597656 179.929688 666.332031 186.726562 C 658.136719 192.164062 648.414062 195.742188 643.1875 204.613281 C 638.445312 212.636719 637.765625 222.988281 641.144531 231.65625 C 646.472656 245.324219 660.042969 254.070312 674.257812 255.941406 C 691.410156 258.199219 708.15625 248.324219 725.25 253.066406 C 731.945312 254.925781 737.601562 259.203125 744.105469 261.519531 C 760.917969 267.523438 782.109375 263.515625 793.753906 249.398438 " fill-opacity="1" fill-rule="nonzero"/><path fill="#93c01f" d="M 650.445312 164.46875 C 660.054688 160.8125 663.148438 145.578125 657.378906 130.453125 C 651.609375 115.328125 639.144531 106.042969 629.546875 109.699219 C 619.9375 113.367188 616.84375 128.589844 622.613281 143.714844 C 628.382812 158.835938 640.847656 168.136719 650.445312 164.46875 " fill-opacity="1" fill-rule="nonzero"/><path fill="#93c01f" d="M 703.988281 127.5625 C 715.3125 125.519531 721.886719 109.414062 718.667969 91.582031 C 715.449219 73.742188 703.671875 60.941406 692.347656 62.984375 C 681.023438 65.015625 674.453125 81.132812 677.667969 98.964844 C 680.886719 116.796875 692.664062 129.59375 703.988281 127.5625 " fill-opacity="1" fill-rule="nonzero"/><path fill="#93c01f" d="M 831.101562 163.316406 C 839.605469 149.539062 839.390625 133.996094 830.640625 128.613281 C 821.890625 123.21875 807.910156 130.023438 799.421875 143.816406 C 790.929688 157.597656 791.132812 173.136719 799.882812 178.519531 C 808.632812 183.914062 822.613281 177.109375 831.101562 163.316406 " fill-opacity="1" fill-rule="nonzero"/><path fill="#93c01f" d="M 785.578125 109.109375 C 792.058594 92.191406 788.605469 75.140625 777.867188 71.019531 C 767.128906 66.914062 753.160156 77.296875 746.679688 94.214844 C 740.1875 111.132812 743.644531 128.183594 754.378906 132.304688 C 765.117188 136.410156 779.085938 126.027344 785.578125 109.109375 " fill-opacity="1" fill-rule="nonzero"/><path fill="#93c01f" d="M 1169.054688 107.160156 C 1154.75 97.417969 1135.339844 98.714844 1122.21875 86.789062 C 1117.070312 82.113281 1113.953125 75.75 1109.1875 70.75 C 1096.882812 57.828125 1076.152344 51.867188 1059.40625 59.238281 C 1051.085938 62.90625 1044.199219 70.027344 1041.542969 78.707031 C 1039.773438 84.550781 1039.964844 90.070312 1041.117188 95.453125 C 1043.136719 104.945312 1048.128906 113.996094 1050.429688 123.546875 C 1053.015625 134.257812 1052.621094 145.800781 1055.296875 156.296875 C 1057.816406 166.171875 1065.808594 175.722656 1074.761719 180.324219 C 1085.953125 186.070312 1098.453125 184.570312 1110.125 181.082031 C 1121.890625 177.574219 1132.730469 173.984375 1144.949219 172.527344 C 1154.726562 171.375 1165.011719 172.550781 1173.671875 166.984375 C 1181.53125 161.941406 1186.792969 153.015625 1187.683594 143.746094 C 1189.085938 129.15625 1180.898438 115.226562 1169.054688 107.160156 " fill-opacity="1" fill-rule="nonzero"/><path fill="#93c01f" d="M 1143.117188 257.871094 C 1153.335938 258.921875 1162.96875 246.722656 1164.628906 230.617188 C 1166.277344 214.511719 1159.332031 200.605469 1149.113281 199.558594 C 1138.882812 198.507812 1129.265625 210.707031 1127.605469 226.8125 C 1125.945312 242.917969 1132.890625 256.824219 1143.117188 257.871094 " fill-opacity="1" fill-rule="nonzero"/><path fill="#93c01f" d="M 1095.300781 245.796875 C 1100.460938 228.425781 1095.707031 211.691406 1084.675781 208.417969 C 1073.65625 205.15625 1060.535156 216.578125 1055.375 233.945312 C 1050.214844 251.316406 1054.96875 268.054688 1066 271.324219 C 1077.019531 274.597656 1090.140625 263.175781 1095.300781 245.796875 " fill-opacity="1" fill-rule="nonzero"/><path fill="#93c01f" d="M 1006.792969 150.972656 C 1020.578125 142.484375 1027.398438 128.511719 1022.011719 119.765625 C 1016.613281 111.019531 1001.066406 110.804688 987.28125 119.292969 C 973.484375 127.777344 966.675781 141.75 972.058594 150.496094 C 977.445312 159.242188 992.992188 159.457031 1006.792969 150.972656 " fill-opacity="1" fill-rule="nonzero"/><path fill="#93c01f" d="M 993.253906 225.664062 C 1000.988281 234.171875 1018.136719 231.179688 1031.550781 218.992188 C 1044.964844 206.804688 1049.5625 190.019531 1041.816406 181.523438 C 1034.082031 173.011719 1016.941406 176.003906 1003.527344 188.191406 C 990.113281 200.382812 985.519531 217.164062 993.253906 225.664062 " fill-opacity="1" fill-rule="nonzero"/><g clip-path="url(#e87ab06bbb)"><path fill="#93c01f" d="M 1422.355469 183.925781 C 1421.386719 196.160156 1420.832031 207.558594 1417.773438 219.476562 C 1415.335938 229.003906 1410.523438 238.179688 1412.589844 248.257812 C 1414.464844 257.398438 1420.902344 265.523438 1429.222656 269.6875 C 1433.511719 271.84375 1438.109375 273.007812 1442.761719 273.3125 L 1442.761719 146.433594 C 1440.207031 147.8125 1437.859375 149.414062 1435.828125 151.230469 C 1426.421875 159.59375 1423.304688 171.78125 1422.355469 183.925781 " fill-opacity="1" fill-rule="nonzero"/></g><path fill="#93c01f" d="M 1356.484375 216.871094 C 1370.914062 224.21875 1386.394531 222.761719 1391.058594 213.609375 C 1395.734375 204.457031 1387.816406 191.082031 1373.386719 183.722656 C 1358.957031 176.375 1343.476562 177.832031 1338.804688 186.984375 C 1334.140625 196.136719 1342.054688 209.511719 1356.484375 216.871094 " fill-opacity="1" fill-rule="nonzero"/><path fill="#93c01f" d="M 1367.3125 146.761719 C 1381.664062 157.84375 1398.996094 159.445312 1406.019531 150.339844 C 1413.054688 141.242188 1407.125 124.890625 1392.773438 113.804688 C 1378.421875 102.734375 1361.09375 101.132812 1354.070312 110.238281 C 1347.035156 119.335938 1352.960938 135.691406 1367.3125 146.761719 " fill-opacity="1" fill-rule="nonzero"/><g clip-path="url(#d14161d4f8)"><path fill="#93c01f" d="M 1422.910156 58.886719 C 1412.183594 63.03125 1408.785156 80.09375 1415.324219 96.988281 C 1421.105469 111.945312 1432.722656 121.761719 1442.761719 120.949219 L 1442.761719 64.722656 C 1436.4375 58.945312 1429.121094 56.484375 1422.910156 58.886719 " fill-opacity="1" fill-rule="nonzero"/></g><g clip-path="url(#23f259a78f)"><path fill="#93c01f" d="M 17.382812 630.84375 C 25.691406 626.679688 32.128906 618.554688 34.003906 609.410156 C 36.070312 599.332031 31.269531 590.15625 28.820312 580.632812 C 25.761719 568.714844 25.207031 557.316406 24.246094 545.082031 C 23.289062 532.9375 20.183594 520.75 10.777344 512.386719 C 7.128906 509.144531 2.476562 506.539062 -2.488281 504.835938 L -2.488281 634.386719 C 4.273438 635.019531 11.148438 633.96875 17.382812 630.84375 " fill-opacity="1" fill-rule="nonzero"/></g><path fill="#93c01f" d="M 107.789062 548.140625 C 103.125 538.988281 87.644531 537.53125 73.214844 544.878906 C 58.785156 552.234375 50.871094 565.609375 55.535156 574.761719 C 60.207031 583.917969 75.6875 585.371094 90.117188 578.023438 C 104.546875 570.667969 112.464844 557.292969 107.789062 548.140625 " fill-opacity="1" fill-rule="nonzero"/><path fill="#93c01f" d="M 79.28125 507.914062 C 93.628906 496.84375 99.558594 480.492188 92.535156 471.394531 C 85.5 462.285156 68.167969 463.890625 53.816406 474.960938 C 39.480469 486.042969 33.550781 502.398438 40.574219 511.492188 C 47.609375 520.601562 64.941406 519 79.28125 507.914062 " fill-opacity="1" fill-rule="nonzero"/><g clip-path="url(#f7bac5cffb)"><path fill="#93c01f" d="M 31.28125 458.144531 C 37.820312 441.25 34.421875 424.183594 23.695312 420.042969 C 15.246094 416.769531 4.769531 422.492188 -2.488281 433.316406 L -2.488281 479.949219 C -1.710938 480.457031 -0.875 480.898438 0.015625 481.234375 C 10.742188 485.390625 24.742188 475.050781 31.28125 458.144531 " fill-opacity="1" fill-rule="nonzero"/></g><path fill="#93c01f" d="M 446.679688 472.398438 C 440.242188 469.871094 433.171875 469.375 426.90625 466.371094 C 410.90625 458.707031 404.800781 440.253906 390.390625 430.675781 C 378.445312 422.738281 362.46875 420.414062 349.460938 427.210938 C 341.21875 431.507812 334.917969 439.746094 333.203125 448.921875 C 331.304688 459.035156 336.273438 468.121094 338.882812 477.601562 C 342.132812 489.472656 342.890625 500.863281 344.054688 513.074219 C 345.226562 525.207031 348.535156 537.339844 358.078125 545.53125 C 365.722656 552.089844 377.578125 555.902344 387.671875 554.515625 C 398.410156 553.050781 408.964844 548.332031 419.871094 546.695312 C 429.582031 545.226562 439.847656 546.445312 449.410156 544.742188 C 454.828125 543.78125 460.023438 541.875 464.765625 538.027344 C 471.824219 532.304688 475.820312 523.242188 476.078125 514.167969 C 476.609375 495.886719 463.285156 478.933594 446.679688 472.398438 " fill-opacity="1" fill-rule="nonzero"/><path fill="#93c01f" d="M 295.097656 514.113281 C 309.402344 506.503906 317.089844 492.996094 312.269531 483.933594 C 307.4375 474.859375 291.933594 473.664062 277.640625 481.257812 C 263.335938 488.855469 255.644531 502.375 260.476562 511.4375 C 265.300781 520.511719 280.800781 521.707031 295.097656 514.113281 " fill-opacity="1" fill-rule="nonzero"/><path fill="#93c01f" d="M 289.664062 551.164062 C 275.507812 562.484375 269.847656 578.9375 277.042969 587.921875 C 284.222656 596.894531 301.519531 595 315.679688 583.679688 C 329.839844 572.359375 335.496094 555.914062 328.300781 546.933594 C 321.121094 537.949219 303.824219 539.84375 289.664062 551.164062 " fill-opacity="1" fill-rule="nonzero"/><g clip-path="url(#711e1f2b70)"><path fill="#93c01f" d="M 447.582031 603.566406 C 450.257812 587.59375 444.203125 573.285156 434.066406 571.59375 C 423.9375 569.898438 413.550781 581.46875 410.886719 597.4375 C 408.210938 613.394531 414.261719 627.71875 424.402344 629.410156 C 434.527344 631.101562 444.917969 619.535156 447.582031 603.566406 " fill-opacity="1" fill-rule="nonzero"/></g><g clip-path="url(#d1973a229c)"><path fill="#93c01f" d="M 369.378906 576.488281 C 358.574219 572.527344 344.765625 583.105469 338.511719 600.113281 C 332.265625 617.121094 335.957031 634.128906 346.753906 638.089844 C 357.546875 642.050781 371.367188 631.476562 377.609375 614.46875 C 383.867188 597.460938 380.171875 580.453125 369.378906 576.488281 " fill-opacity="1" fill-rule="nonzero"/></g><g clip-path="url(#2865df365e)"><path fill="#93c01f" d="M 767.160156 628.496094 C 774.589844 622.886719 779.433594 613.722656 779.617188 604.390625 C 779.808594 594.109375 773.417969 585.960938 769.285156 577.03125 C 764.113281 565.871094 761.492188 554.765625 758.320312 542.914062 C 755.171875 531.132812 749.898438 519.710938 739.125 513.210938 C 730.523438 507.996094 718.191406 506.1875 708.460938 509.226562 C 698.117188 512.453125 688.484375 518.839844 677.996094 522.25 C 668.660156 525.296875 658.339844 525.792969 649.183594 529.042969 C 644 530.894531 639.191406 533.613281 635.148438 538.195312 C 629.140625 545 626.679688 554.605469 627.921875 563.601562 C 630.417969 581.714844 646.359375 596.242188 663.828125 599.941406 C 670.589844 601.375 677.636719 600.699219 684.320312 602.628906 C 701.359375 607.550781 710.4375 624.738281 726.222656 631.8125 C 739.308594 637.671875 755.464844 637.332031 767.160156 628.496094 " fill-opacity="1" fill-rule="nonzero"/></g><path fill="#93c01f" d="M 841.027344 530.734375 C 834.773438 522.585938 819.292969 523.964844 806.433594 533.816406 C 793.582031 543.671875 788.230469 558.261719 794.484375 566.410156 C 800.742188 574.558594 816.234375 573.183594 829.082031 563.332031 C 841.929688 553.488281 847.28125 538.886719 841.027344 530.734375 " fill-opacity="1" fill-rule="nonzero"/><path fill="#93c01f" d="M 768.269531 506.921875 C 776.839844 514.585938 793.59375 509.867188 805.6875 496.371094 C 817.78125 482.871094 820.636719 465.707031 812.066406 458.042969 C 803.507812 450.367188 786.75 455.085938 774.660156 468.582031 C 762.566406 482.082031 759.699219 499.25 768.269531 506.921875 " fill-opacity="1" fill-rule="nonzero"/><path fill="#93c01f" d="M 659.886719 441.417969 C 649.609375 441.417969 641.277344 454.53125 641.277344 470.726562 C 641.277344 486.914062 649.609375 500.039062 659.886719 500.039062 C 670.160156 500.039062 678.492188 486.914062 678.492188 470.726562 C 678.492188 454.53125 670.160156 441.417969 659.886719 441.417969 " fill-opacity="1" fill-rule="nonzero"/><path fill="#93c01f" d="M 735.039062 420.054688 C 723.726562 417.921875 711.847656 430.628906 708.492188 448.4375 C 705.140625 466.246094 711.578125 482.410156 722.878906 484.53125 C 734.179688 486.664062 746.070312 473.957031 749.421875 456.148438 C 752.789062 438.335938 746.339844 422.175781 735.039062 420.054688 " fill-opacity="1" fill-rule="nonzero"/><path fill="#93c01f" d="M 1116.507812 439.859375 C 1113.851562 431.183594 1106.964844 424.058594 1098.65625 420.390625 C 1081.898438 413.023438 1061.167969 418.980469 1048.863281 431.902344 C 1044.097656 436.902344 1040.980469 443.269531 1035.832031 447.941406 C 1022.710938 459.871094 1003.300781 458.574219 989.007812 468.3125 C 977.152344 476.382812 968.976562 490.308594 970.367188 504.902344 C 971.257812 514.167969 976.519531 523.09375 984.378906 528.140625 C 993.039062 533.703125 1003.324219 532.53125 1013.101562 533.683594 C 1025.332031 535.136719 1036.160156 538.726562 1047.925781 542.238281 C 1059.597656 545.722656 1072.097656 547.226562 1083.289062 541.480469 C 1092.242188 536.875 1100.246094 527.328125 1102.753906 517.453125 C 1105.429688 506.957031 1105.035156 495.410156 1107.621094 484.699219 C 1109.921875 475.152344 1114.914062 466.101562 1116.945312 456.609375 C 1118.085938 451.226562 1118.289062 445.707031 1116.507812 439.859375 " fill-opacity="1" fill-rule="nonzero"/><g clip-path="url(#40d5b93099)"><path fill="#93c01f" d="M 1008.9375 560.710938 C 998.71875 561.761719 991.773438 575.667969 993.433594 591.769531 C 995.082031 607.875 1004.714844 620.078125 1014.941406 619.027344 C 1025.160156 617.976562 1032.105469 604.074219 1030.445312 587.96875 C 1028.796875 571.863281 1019.167969 559.664062 1008.9375 560.710938 " fill-opacity="1" fill-rule="nonzero"/></g><g clip-path="url(#32ff1f1151)"><path fill="#93c01f" d="M 1073.375 569.570312 C 1062.34375 572.84375 1057.589844 589.582031 1062.75 606.949219 C 1067.910156 624.332031 1081.03125 635.753906 1092.0625 632.480469 C 1103.082031 629.207031 1107.847656 612.46875 1102.6875 595.101562 C 1097.515625 577.730469 1084.394531 566.308594 1073.375 569.570312 " fill-opacity="1" fill-rule="nonzero"/></g><path fill="#93c01f" d="M 1170.769531 480.445312 C 1156.984375 471.957031 1141.4375 472.171875 1136.050781 480.917969 C 1130.664062 489.667969 1137.472656 503.636719 1151.269531 512.125 C 1165.058594 520.613281 1180.605469 520.398438 1185.992188 511.652344 C 1191.375 502.90625 1184.566406 488.933594 1170.769531 480.445312 " fill-opacity="1" fill-rule="nonzero"/><path fill="#93c01f" d="M 1154.523438 549.347656 C 1141.121094 537.15625 1123.96875 534.167969 1116.234375 542.675781 C 1108.488281 551.175781 1113.097656 567.957031 1126.511719 580.148438 C 1139.914062 592.335938 1157.0625 595.328125 1164.796875 586.816406 C 1172.542969 578.320312 1167.9375 561.535156 1154.523438 549.347656 " fill-opacity="1" fill-rule="nonzero"/><g clip-path="url(#4dde78bbe1)"><path fill="#93c01f" d="M 1426.589844 502.894531 C 1415.832031 504.191406 1405.207031 508.71875 1394.265625 510.171875 C 1384.53125 511.472656 1374.292969 510.082031 1364.695312 511.617188 C 1359.261719 512.488281 1354.035156 514.304688 1349.238281 518.0625 C 1342.078125 523.671875 1337.921875 532.667969 1337.503906 541.730469 C 1336.667969 560.011719 1349.710938 577.179688 1366.195312 583.996094 C 1372.585938 586.636719 1379.644531 587.246094 1385.863281 590.359375 C 1401.726562 598.292969 1407.519531 616.847656 1421.757812 626.667969 C 1427.957031 630.945312 1435.296875 633.6875 1442.761719 634.386719 L 1442.761719 504.835938 C 1437.464844 503.039062 1431.808594 502.273438 1426.589844 502.894531 " fill-opacity="1" fill-rule="nonzero"/></g><path fill="#93c01f" d="M 1391.160156 427.390625 C 1381.054688 425.527344 1370.476562 436.914062 1367.527344 452.828125 C 1364.582031 468.753906 1370.394531 483.164062 1380.5 485.039062 C 1390.59375 486.902344 1401.175781 475.511719 1404.121094 459.601562 C 1407.070312 443.675781 1401.265625 429.261719 1391.160156 427.390625 " fill-opacity="1" fill-rule="nonzero"/><g clip-path="url(#6cd870a7d1)"><path fill="#93c01f" d="M 1442.761719 479.949219 L 1442.761719 433.316406 C 1440.796875 436.238281 1439.066406 439.535156 1437.679688 443.132812 C 1431.671875 458.640625 1434.042969 474.261719 1442.761719 479.949219 " fill-opacity="1" fill-rule="nonzero"/></g></g></g></g></svg>